<svg xmlns="http://www.w3.org/2000/svg" xmlns:xlink="http://www.w3.org/1999/xlink" width="200" height="100"><path fill="#000000" stroke="#000000" d="M4.79 82.91L4.79 12.89L14.75 12.89L24.95 70.36L35.16 12.89L45.17 12.89L45.17 82.91L38.38 82.91L38.38 28.56L28.66 82.91L21.29 82.91L11.96 28.56L11.96 82.91L4.79 82.91ZM55.81 61.47L55.81 12.89L63.82 12.89L63.82 61.47Q63.82 77.39 75 77.39L75 77.39Q86.18 77.39 86.18 61.47L86.18 61.47L86.18 12.89L94.19 12.89L94.19 61.47Q94.19 71.53 90.09 77.59L90.09 77.59Q85.16 84.91 75 84.91L75 84.91Q55.81 84.91 55.81 61.47L55.81 61.47ZM103.91 20.70L103.91 12.89L146.09 12.89L146.09 20.70L129.20 20.70L129.20 82.91L120.80 82.91L120.80 20.70L103.91 20.70ZM156.98 82.91L156.98 12.89L192.09 12.89L192.09 20.51L164.99 20.51L164.99 42.77L188.48 42.77L188.48 50.20L164.99 50.20L164.99 75.29L194.09 75.29L194.09 82.91L156.98 82.91Z"/></svg>