<?xml version="1.0" standalone="no"?>
<!DOCTYPE svg PUBLIC "-//W3C//DTD SVG 20010904//EN"
 "http://www.w3.org/TR/2001/REC-SVG-20010904/DTD/svg10.dtd">
<svg version="1.0" xmlns="http://www.w3.org/2000/svg"
 width="600.000000pt" height="600.000000pt" viewBox="0 0 600.000000 600.000000"
 preserveAspectRatio="xMidYMid meet">

<g transform="translate(0.000000,600.000000) scale(0.100000,-0.100000)"
fill="#000000" stroke="none">
<path d="M3730 4689 c-85 -5 -580 -29 -1100 -54 -520 -24 -981 -47 -1025 -51
-102 -8 -163 -34 -219 -94 -86 -91 -81 -50 -84 -713 l-3 -588 -44 49 c-26 29
-64 58 -93 70 -127 55 -493 55 -639 0 -66 -24 -134 -97 -163 -176 -66 -172
-320 -1262 -320 -1368 0 -77 53 -143 133 -166 30 -8 189 -12 577 -12 l535 -1
48 28 c28 17 54 42 63 61 l16 32 50 -25 c61 -30 153 -39 402 -40 l179 -1 -6
-83 c-18 -260 75 -423 286 -497 77 -27 189 -37 832 -71 304 -16 1105 -27 1236
-18 270 20 431 103 510 264 32 65 59 175 59 241 l0 42 348 4 c340 3 348 4 395
27 72 35 92 73 131 252 74 333 156 769 156 826 0 109 -66 270 -168 412 -31 42
-73 102 -95 133 -58 85 -145 176 -186 197 -20 10 -63 25 -96 32 -69 15 -360
18 -476 6 l-77 -9 2 444 1 443 -24 52 c-25 57 -93 127 -144 148 -18 7 -188 57
-377 111 -380 107 -378 107 -620 93z m180 -561 l0 -312 -37 62 c-128 210 -314
392 -517 504 -35 19 -45 28 -31 29 128 7 492 26 533 28 l52 1 0 -312z m445
201 c138 -38 257 -73 265 -78 13 -7 16 -75 20 -489 5 -440 6 -482 23 -499 16
-19 16 -24 -17 -124 -26 -80 -173 -645 -248 -953 l-9 -38 -82 6 c-45 3 -124 9
-174 12 l-93 7 0 1123 0 1123 33 -10 c17 -5 145 -41 282 -80z m-1290 40 c370
-114 677 -417 815 -804 l32 -90 -6 -355 c-3 -195 -10 -378 -15 -406 -21 -115
-120 -305 -230 -444 l-63 -80 -119 0 c-66 0 -119 4 -119 8 0 5 14 21 31 38 45
41 139 170 181 245 51 92 103 229 130 339 19 82 22 122 22 295 1 177 -2 211
-23 295 -120 482 -458 823 -897 906 -131 24 -337 15 -459 -20 -350 -103 -633
-377 -761 -736 l-23 -65 -1 83 c0 75 3 89 36 155 132 261 363 479 629 595 79
34 82 34 310 47 364 19 452 18 530 -6z m-1090 -27 c-6 -4 -44 -33 -86 -65 -90
-67 -241 -220 -292 -297 l-37 -55 0 191 c0 142 3 194 13 202 7 6 93 15 192 20
99 5 189 10 200 10 10 1 15 -2 10 -6z m873 -168 c177 -44 366 -166 492 -315
172 -207 262 -459 262 -739 1 -334 -116 -618 -341 -833 l-90 -85 -113 -6 c-62
-3 -225 -8 -363 -12 -269 -6 -309 -11 -399 -52 l-58 -26 -55 29 c-165 86 -331
262 -425 450 -83 165 -121 336 -121 535 2 424 217 798 562 979 208 108 420
133 649 75z m2584 -934 c54 -16 68 -33 62 -78 -19 -136 -197 -919 -300 -1318
-31 -122 -78 -164 -181 -164 -37 0 -63 4 -63 10 0 6 -14 47 -31 92 -28 72 -42
92 -113 163 -65 66 -98 90 -169 124 l-88 43 6 36 c3 21 28 123 54 227 l48 190
-5 -109 c-9 -205 48 -339 170 -400 173 -86 373 39 471 297 30 78 31 90 32 222
0 136 -1 142 -31 205 -41 86 -74 123 -136 154 -172 86 -375 -41 -468 -292 -16
-42 -29 -73 -30 -69 0 14 120 467 141 531 37 108 66 130 191 146 93 11 391 5
440 -10z m-4346 -76 c38 -18 39 -21 36 -64 -5 -75 -47 -276 -137 -650 -47
-195 -97 -407 -111 -470 -28 -129 -53 -190 -92 -221 -27 -21 -31 -21 -301 -15
-151 3 -277 9 -280 11 -8 8 54 326 102 525 l42 175 7 -87 c17 -231 167 -354
354 -291 68 23 170 126 212 213 50 106 65 180 60 300 -5 118 -28 185 -87 252
-51 59 -109 82 -191 76 -101 -8 -187 -67 -264 -183 -14 -22 -26 -35 -26 -30 0
26 95 365 111 397 36 70 115 89 365 84 134 -3 168 -6 200 -22z m4599 -209 c94
-132 145 -249 145 -334 0 -43 -129 -700 -168 -856 l-17 -70 -50 -7 c-61 -8
-325 -10 -325 -3 0 3 9 24 21 47 11 22 34 98 50 169 16 71 71 305 123 521 52
216 104 440 116 498 26 130 28 136 39 124 5 -5 35 -45 66 -89z m-4411 -9 l26
-35 0 -503 c-1 -442 -3 -512 -18 -578 l-18 -75 -44 -7 c-25 -3 -100 -7 -167
-7 l-122 -1 20 44 c11 25 30 93 44 153 13 59 65 279 115 487 50 208 98 419
108 467 9 49 20 89 23 89 4 0 18 -15 33 -34z m3802 -162 c24 -12 41 -32 60
-71 78 -159 -14 -442 -161 -498 -40 -16 -45 -16 -79 0 -26 13 -43 31 -62 72
-76 154 9 430 151 494 49 23 49 23 91 3z m-4336 -49 c110 -57 93 -323 -27
-447 -92 -95 -176 -60 -203 83 -25 133 54 320 155 365 38 17 40 17 75 -1z
m989 -355 c58 -86 230 -256 311 -308 112 -72 105 -64 82 -91 l-19 -25 -69 46
c-176 118 -339 296 -422 463 -25 50 -29 68 -25 113 l5 54 47 -94 c26 -51 66
-122 90 -158z m2178 -197 c-3 -2 -37 -3 -76 -1 l-72 3 41 55 c23 30 56 80 73
110 l32 55 3 -109 c1 -60 1 -110 -1 -113z m-2281 27 c60 -81 172 -192 255
-255 35 -27 68 -51 72 -55 13 -11 -367 1 -380 12 -10 8 -13 60 -13 196 0 102
4 182 8 177 5 -6 31 -39 58 -75z m2029 -280 c399 -14 629 -28 672 -43 74 -25
97 -123 82 -363 -14 -247 -28 -276 -138 -296 -118 -22 -1547 27 -1804 61 -75
10 -120 32 -151 74 -19 27 -21 41 -20 185 1 189 14 260 56 308 55 62 72 67
293 74 321 11 698 11 1010 0z m976 -167 c22 -22 46 -64 59 -101 20 -53 22 -75
17 -145 -12 -161 -48 -223 -149 -258 -29 -9 -54 -17 -55 -16 -1 1 5 29 13 62
18 76 30 434 16 492 l-10 42 37 -19 c20 -10 52 -36 72 -57z"/>
<path d="M4956 2569 c-32 -37 -40 -68 -32 -115 8 -41 46 -65 74 -48 57 36 81
135 42 174 -28 28 -54 25 -84 -11z"/>
<path d="M647 2569 c-23 -14 -47 -68 -47 -108 0 -43 30 -76 63 -67 53 13 85
111 53 161 -18 27 -40 31 -69 14z"/>
<path d="M3110 1871 c-51 -16 -89 -41 -134 -92 -102 -114 -102 -284 0 -399 66
-72 110 -93 215 -98 116 -6 181 13 247 73 70 63 97 127 96 230 0 67 -5 89 -27
131 -34 67 -106 130 -170 149 -53 16 -184 19 -227 6z m195 -108 c52 -36 95
-119 95 -183 0 -66 -43 -147 -98 -185 -37 -25 -53 -30 -105 -30 -126 0 -210
86 -211 214 -1 55 4 74 26 113 28 46 73 82 126 99 47 15 123 2 167 -28z"/>
<path d="M4062 1418 c-7 -7 -12 -26 -12 -43 0 -44 16 -55 80 -55 64 0 80 11
80 55 0 44 -16 55 -80 55 -31 0 -61 -5 -68 -12z"/>
</g>
</svg>
